#!OML:ASF H:\MichaelJackson\Top Level 1\Subject 1\Session 1\male.ASF
:FULLY-SPECIFIED
:DEGREES
746
root 4.70533 16.4369 10.1274 -15.9549 15.8311 -3.56295
lowerback 22.3395 -4.19747 -4.94307
upperback 6.31901 -6.51947 -0.288221
thorax -4.95462 -3.16793 4.14851
lowerneck -8.37336 -1.17673 2.48442
upperneck 1.21301 -1.94403 3.37393
head 1.81741 -0.863133 0.561203
rclavicle -1.81888e-014 2.38542e-014
rhumerus -64.744 -24.1082 -56.9983
rradius 76.2797
rwrist -34.7793
rhand -17.829 -38.1254
rfingers 7.12502
rthumb 8.43532 -67.9369
lclavicle -1.81888e-014 2.38542e-014
lhumerus -26.2811 -33.989 75.974
lradius 59.904
lwrist 20.0849
lhand 15.9418 13.1111
lfingers 7.12502
lthumb 40.7374 38.1103
rfemur -87.6377 -12.0156 34.1108
rtibia 96.4155
rfoot 10.6054 13.444
rtoes -18.5149
lfemur -15.8617 15.3658 -17.7563
ltibia 39.9918
lfoot -9.316 -9.19354
ltoes 13.3836
747
root 4.6569 16.4487 10.2062 -15.4156 16.8907 -3.66136
lowerback 21.8643 -4.55227 -4.97881
upperback 6.12385 -6.97487 -0.313599
thorax -4.87848 -3.39092 4.21426
lowerneck -8.2923 -1.22619 2.43934
upperneck 1.43095 -2.01594 3.50887
head 1.87732 -0.891698 0.608889
rclavicle 5.75482e-014 2.54444e-014
rhumerus -64.6512 -24.4894 -57.9863
rradius 76.2834
rwrist -32.3652
rhand -22.2911 -39.9235
rfingers 7.12502
rthumb 4.12767 -69.8633
lclavicle 5.75482e-014 2.54444e-014
lhumerus -26.2158 -35.2604 76.6092
lradius 60.0104
lwrist 19.7389
lhand 16.2654 13.2108
lfingers 7.12502
lthumb 41.0414 38.1141
rfemur -88.7416 -12.8523 34.7594
rtibia 101.863
rfoot 11.8055 18.3622
rtoes -21.478
lfemur -16.4209 16.3582 -17.74
ltibia 40.1704
lfoot -9.7217 -6.94164
ltoes 11.278
748
root 4.61028 16.4671 10.281 -14.7988 17.9478 -3.90802
lowerback 21.2671 -4.93506 -4.8097
upperback 5.88608 -7.41747 -0.284544
thorax -4.8048 -3.60845 4.20721
lowerneck -8.22682 -1.28566 2.40403
upperneck 1.64633 -2.10181 3.61109
head 1.93895 -0.927843 0.64399
rclavicle -6.57977e-014 3.18055e-015
rhumerus -64.5352 -24.773 -59.0482
rradius 76.3303
rwrist -29.0069
rhand -26.4725 -42.8979
rfingers 7.12502
rthumb 0.0893733 -72.8776
lclavicle -6.57977e-014 3.18055e-015
lhumerus -26.2162 -36.5705 77.3778
lradius 60.0751
lwrist 19.3201
lhand 16.5784 13.3536
lfingers 7.12502
lthumb 41.3352 38.1625
rfemur -89.4822 -13.8274 35.4675
rtibia 106.84
rfoot 13.0593 23.5399
rtoes -23.1273
lfemur -17.1071 17.5027 -17.6375
ltibia 40.315
lfoot -9.94772 -4.26487
ltoes 9.47183
749
root 4.5661 16.4924 10.3515 -14.1277 18.9581 -4.23585
lowerback 20.5798 -5.31912 -4.49726
upperback 5.62065 -7.83124 -0.219585
thorax -4.73138 -3.81296 4.13992
lowerneck -8.18446 -1.34994 2.38058
upperneck 1.84845 -2.19448 3.67733
head 1.99997 -0.968249 0.665295
rclavicle 1.86858e-014 -1.59028e-014
rhumerus -64.3862 -24.9681 -60.1434
rradius 76.4322
rwrist -25.175
rhand -30.0369 -47.0268
rfingers 7.12502
rthumb -3.35312 -76.9802
lclavicle 1.86858e-014 -1.59028e-014
lhumerus -26.3055 -37.9067 78.2569
lradius 60.1479
lwrist 18.8111
lhand 16.9224 13.4909
lfingers 7.12502
lthumb 41.658 38.1944
rfemur -89.8287 -14.9437 36.2226
rtibia 111.384
rfoot 14.7373 28.197
rtoes -23.2008
lfemur -17.8524 18.7918 -17.507
ltibia 40.3908
lfoot -10.0153 -1.40641
ltoes 8.25165
750
root 4.52404 16.5234 10.4185 -13.4146 19.9075 -4.56829
lowerback 19.8283 -5.67983 -4.13662
upperback 5.34148 -8.20769 -0.134401
thorax -4.64688 -4.00068 4.04784
lowerneck -8.16721 -1.42045 2.36822
upperneck 2.02653 -2.29517 3.7067
head 2.05711 -1.01382 0.672502
rclavicle 8.5378e-014 -2.22639e-014
rhumerus -64.2067 -25.0829 -61.2344
rradius 76.6256
rwrist -21.442
rhand -32.7631 -51.7864
rfingers 7.12502
rthumb -5.98549 -81.6819
lclavicle 8.5378e-014 -2.22639e-014
lhumerus -26.505 -39.2554 79.2293
lradius 60.2736
lwrist 18.2088
lhand 17.2843 13.588
lfingers 7.12502
lthumb 41.9973 38.179
rfemur -89.7764 -16.2271 36.9653
rtibia 115.554
rfoot 16.7275 31.7142
rtoes -22.066
lfemur -18.6062 20.2065 -17.414
ltibia 40.3747
lfoot -10.0059 1.33407
ltoes 7.69704
751
root 4.48354 16.5586 10.4835 -12.6645 20.799 -4.85191
lowerback 19.0356 -6.00155 -3.80162
upperback 5.05543 -8.5429 -0.0388329
thorax -4.54635 -4.16954 3.96214
lowerneck -8.17039 -1.50095 2.35838
upperneck 2.17272 -2.40794 3.71283
head 2.10719 -1.06652 0.671195
rclavicle 7.39479e-014 -2.8625e-014
rhumerus -64.0086 -25.1107 -62.3162
rradius 76.972
rwrist -18.3184
rhand -34.7595 -56.4966
rfingers 7.12502
rthumb -7.91266 -86.3285
lclavicle 7.39479e-014 -2.8625e-014
lhumerus -26.8394 -40.607 80.2876
lradius 60.4837
lwrist 17.5271
lhand 17.6233 13.6079
lfingers 7.12502
lthumb 42.3149 38.0915
rfemur -89.3498 -17.7166 37.6173
rtibia 119.379
rfoot 18.4307 33.8308
rtoes -20.7312
lfemur -19.2943 21.7034 -17.4059
ltibia 40.138
lfoot -9.94565 3.70616
ltoes 7.67222
752
root 4.44391 16.595 10.548 -11.8893 21.6516 -5.05221
lowerback 18.233 -6.27886 -3.55375
upperback 4.77015 -8.84134 0.0625552
thorax -4.42766 -4.3213 3.91546
lowerneck -8.19757 -1.59706 2.33674
upperneck 2.29238 -2.54001 3.71585
head 2.15324 -1.12937 0.669857
rclavicle 6.79844e-014 -1.59028e-015
rhumerus -63.8024 -25.0413 -63.3923
rradius 77.511
rwrist -16.0468
rhand -36.1935 -60.4467
rfingers 7.12502
rthumb -9.29652 90.2218
lclavicle 6.79844e-014 -1.59028e-015
lhumerus -27.3124 -41.9382 81.4259
lradius 60.7868
lwrist 16.8125
lhand 17.9782 13.5834
lfingers 7.12502
lthumb 42.6472 37.9528
rfemur -88.5345 -19.4707 38.0924
rtibia 122.902
rfoot 19.0388 34.582
rtoes -20.4027
lfemur -19.9553 23.207 -17.5062
ltibia 39.825
lfoot -9.96387 5.61294
ltoes 7.98924
753
root 4.40104 16.659 10.6049 -11.1039 22.4784 -5.1643
lowerback 17.4416 -6.51084 -3.42318
upperback 4.49077 -9.10505 0.173403
thorax -4.2896 -4.45665 3.93055
lowerneck -8.23426 -1.71385 2.29277
upperneck 2.37723 -2.69684 3.73036
head 2.19033 -1.20511 0.674792
rclavicle -1.37957e-013 4.92986e-014
rhumerus -63.5947 -24.8582 -64.4722
rradius 78.2603
rwrist -14.643
rhand -37.2436 -63.178
rfingers 7.12502
rthumb -10.3096 92.9053
lclavicle -1.37957e-013 4.92986e-014
lhumerus -27.9262 -43.2272 82.6505
lradius 61.1739
lwrist 16.1033
lhand 18.2941 13.5015
lfingers 7.12502
lthumb 42.9428 37.7676
rfemur -87.0512 -21.6271 38.2959
rtibia 125.9
rfoot 18.4004 34.0566
rtoes -21.3095
lfemur -20.5292 24.6658 -17.7172
ltibia 39.3775
lfoot -10.0293 7.05989
ltoes 8.28747
754
root 4.36233 16.6899 10.6729 -10.2985 23.2984 -5.15165
lowerback 16.6776 -6.70031 -3.4421
upperback 4.21328 -9.34144 0.28082
thorax -4.14014 -4.57838 4.01525
lowerneck -8.27943 -1.85195 2.22774
upperneck 2.43783 -2.88001 3.76167
head 2.22196 -1.29412 0.687386
rclavicle 7.61345e-014 -3.18055e-014
rhumerus -63.3976 -24.5455 -65.5682
rradius 79.2137
rwrist -13.9156
rhand -37.9723 -64.4642
rfingers 7.12502
rthumb -11.0126 94.1554
lclavicle 7.61345e-014 -3.18055e-014
lhumerus -28.6844 -44.459 83.9675
lradius 61.6239
lwrist 15.4391
lhand 18.5126 13.3185
lfingers 7.12502
lthumb 43.1471 37.5122
rfemur -85.4382 -24.039 38.0888
rtibia 128.731
rfoot 17.3212 32.1586
rtoes -22.7363
lfemur -21.1397 26.0319 -18.0665
ltibia 38.9719
lfoot -10.1399 8.14519
ltoes 8.39014
755
root 4.32394 16.7184 10.742 -9.50417 24.0995 -5.06291
lowerback 15.9536 -6.85672 -3.55826
upperback 3.94211 -9.55099 0.391033
thorax -3.9876 -4.68655 4.14991
lowerneck -8.3293 -2.00815 2.13739
upperneck 2.48293 -3.0852 3.8144
head 2.25066 -1.39399 0.710045
rclavicle -1.44815e-013 2.38542e-014
rhumerus -63.2096 -24.0835 -66.6925
rradius 80.3344
rwrist -13.5509
rhand -38.3614 -64.3196
rfingers 7.12502
rthumb -11.3879 93.9904
lclavicle -1.44815e-013 2.38542e-014
lhumerus -29.5894 -45.6014 85.3758
lradius 62.1371
lwrist 14.8818
lhand 18.6446 13.089
lfingers 7.12502
lthumb 43.2704 37.2387
rfemur -83.3429 -26.7433 37.3858
rtibia 131.08
rfoot 16.5455 29.1489
rtoes -23.5804
lfemur -21.7114 27.2732 -18.4949
ltibia 38.5347
lfoot -10.2339 8.98905
ltoes 8.32113
756
root 4.28664 16.7454 10.8121 -8.7326 24.8651 -4.92245
lowerback 15.2625 -6.98644 -3.72781
upperback 3.67904 -9.73318 0.501138
thorax -3.83396 -4.78098 4.30777
lowerneck -8.37176 -2.17582 2.02541
upperneck 2.51293 -3.30333 3.88414
head 2.27429 -1.50041 0.741253
rclavicle 3.73715e-014 1.27222e-014
rhumerus -63.0179 -23.4529 -67.8587
rradius 81.5707
rwrist -13.202
rhand -38.3464 -63.0353
rfingers 7.12502
rthumb -11.3733 92.7069
lclavicle 3.73715e-014 1.27222e-014
lhumerus -30.6504 -46.6325 86.8733
lradius 62.7173
lwrist 14.4725
lhand 18.6625 12.8163
lfingers 7.12502
lthumb 43.2871 36.9599
rfemur -80.7164 -29.5896 36.0768
rtibia 132.862
rfoot 16.5978 25.4077
rtoes -22.8837
lfemur -22.2937 28.383 -18.9713
ltibia 38.2043
lfoot -10.3446 9.70298
ltoes 8.05586
757
root 4.2516 16.7718 10.8827 -7.99168 25.5701 -4.76585
lowerback 14.5865 -7.09873 -3.88403
upperback 3.42311 -9.88903 0.607461
thorax -3.68277 -4.86234 4.44827
lowerneck -8.39896 -2.34416 1.90632
upperneck 2.53549 -3.52064 3.95253
head 2.29322 -1.60687 0.773353
rclavicle -1.16836e-013 3.81667e-014
rhumerus -62.8092 -22.6253 -69.0931
rradius 82.8821
rwrist -12.6297
rhand -37.9505 -61.0534
rfingers 7.12502
rthumb -10.9915 90.7456
lclavicle -1.16836e-013 3.81667e-014
lhumerus -31.8836 -47.5222 88.4506
lradius 63.3857
lwrist 14.2462
lhand 18.6111 12.5832
lfingers 7.12502
lthumb 43.2391 36.7441
rfemur -77.5556 -32.2903 34.0923
rtibia 133.983
rfoot 17.5469 21.335
rtoes -19.9978
lfemur -22.8309 29.3592 -19.4536
ltibia 37.8506
lfoot -10.3799 10.3034
ltoes 7.68812
758
root 4.22004 16.7979 10.9537 -7.29074 26.1874 -4.63061
lowerback 13.9055 -7.1986 -3.96297
upperback 3.17274 -10.0157 0.709665
thorax -3.53703 -4.92945 4.53512
lowerneck -8.41288 -2.50401 1.78991
upperneck 2.56681 -3.72573 3.99925
head 2.31234 -1.70786 0.798646
rclavicle 1.57537e-014 1.27222e-014
rhumerus -62.5807 -21.5908 -70.3922
rradius 84.2349
rwrist -11.7201
rhand -37.1996 -58.6246
rfingers 7.12502
rthumb -10.2672 -88.354
lclavicle 1.57537e-014 1.27222e-014
lhumerus -33.3038 -48.2516 90.1013
lradius 64.1628
lwrist 14.216
lhand 18.4877 12.4126
lfingers 7.12502
lthumb 43.1238 36.6146
rfemur -73.8847 -34.4908 31.4653
rtibia 134.397
rfoot 19.0267 17.2272
rtoes -14.9122
lfemur -23.3298 30.2063 -19.8964
ltibia 37.4873
lfoot -10.3247 10.7809
ltoes 7.37198
